<svg width="17" height="17" viewBox="0 0 17 17" fill="none" xmlns="http://www.w3.org/2000/svg">
  <path d="M3.27277 12.624H13.2728V14.124H3.27277V12.624ZM13.7328 5.93402C13.6953 5.84271 13.6316 5.76455 13.5497 5.70938C13.4678 5.65421 13.3715 5.62452 13.2728 5.62402H11.2728V2.12402H5.27277V5.62402H3.27277C3.17406 5.62452 3.0777 5.65421 2.99584 5.70938C2.91398 5.76455 2.85028 5.84271 2.81277 5.93402C2.77448 6.02508 2.76402 6.12543 2.78271 6.22243C2.8014 6.31942 2.8484 6.40871 2.91777 6.47902L7.91777 11.479C7.96449 11.5254 8.0199 11.562 8.08082 11.5869C8.14174 11.6118 8.20697 11.6244 8.27277 11.624C8.33858 11.6244 8.40381 11.6118 8.46473 11.5869C8.52564 11.562 8.58105 11.5254 8.62777 11.479L13.6278 6.47902C13.6972 6.40871 13.7442 6.31942 13.7628 6.22243C13.7815 6.12543 13.7711 6.02508 13.7328 5.93402V5.93402Z" fill="#7678ED" />
</svg>