<svg width="33" height="33" viewBox="0 0 33 33" fill="none" xmlns="http://www.w3.org/2000/svg">
<mask id="mask0_1053_13325" style="mask-type:luminance" maskUnits="userSpaceOnUse" x="1" y="1" width="31" height="31">
<path d="M16.2137 31.5727C24.5453 31.5727 31.2994 24.8245 31.2994 16.5002C31.2994 8.17591 24.5453 1.42773 16.2137 1.42773C7.88205 1.42773 1.12795 8.17591 1.12795 16.5002C1.12795 24.8245 7.88205 31.5727 16.2137 31.5727Z" fill="white"/>
</mask>
<g mask="url(#mask0_1053_13325)">
<path d="M12.1661 -0.469711C4.73928 -23.5932 -21.5516 -50.719 -21.4913 -79.2686C-21.4913 -79.2686 -39.4224 -66.1068 -26.147 -36.5184C-9.93796 -0.39551 4.63252 22.3709 4.22404 36.6457C19.087 26.081 16.4319 12.808 12.1661 -0.469711Z" fill="#EDB940"/>
<path d="M-26.147 -36.2355C-11.7204 -4.07782 1.49001 16.9773 3.84338 31.6462C9.26031 22.8068 8.07202 11.0967 3.73662 1.52914C0.306361 -6.03492 -6.26637 -16.1729 -18.2653 -33.1561C-25.1351 -42.8859 -31.3597 -53.0935 -29.2291 -67.7764C-31.796 -60.7827 -32.5155 -50.4268 -26.147 -36.2355Z" fill="#E38B33"/>
<path d="M15.3875 -5.02855C6.907 -27.0019 -20.8368 -53.2883 -21.4913 -79.2686C-21.4913 -79.2686 -32.794 -60.05 -13.9763 -34.4454C12.4539 1.52449 17.5041 16.0868 4.2287 36.641C18.4557 27.6022 20.2613 7.58131 15.3921 -5.03319L15.3875 -5.02855Z" fill="#757BE5"/>
<path d="M15.7681 -5.21823C7.28757 -27.1916 -20.8368 -53.2878 -21.4913 -79.2681C-21.4913 -79.2681 -21.5145 -79.4119 -22.3361 -77.4826C-22.3965 -76.1284 -22.3965 -74.7974 -22.3501 -73.4803C-21.2732 -44.4206 4.77638 -24.0287 12.5467 -3.89649C17.142 8.0038 16.9146 26.5035 4.79495 36.1499C4.72996 36.2519 4.28899 36.5441 4.22401 36.6461C18.451 27.6073 20.6373 7.39626 15.7681 -5.21823Z" fill="#2B2B77"/>
<path d="M33.6667 12.9246C42.5789 -9.6702 39.4364 -47.2957 57.5857 -69.3479C57.5857 -69.3479 35.3702 -70.5166 26.8804 -39.2169C16.5154 -1.007 13.3543 25.8266 3.99192 36.6139C22.1876 37.8475 28.5515 25.8962 33.6713 12.9246H33.6667Z" fill="#757BE5"/>
<path d="M26.6994 -38.9988C17.4716 -4.98604 14.3384 19.6679 6.8652 32.505C16.664 29.0916 23.1671 19.2829 25.8778 9.13106C28.0223 1.10787 29.3638 -10.8944 30.8492 -31.6342C31.6986 -43.5066 33.3557 -55.3466 44.3149 -65.3594C37.8954 -61.575 30.7703 -54.011 26.6994 -39.0034V-38.9988Z" fill="#2B2B77"/>
<path d="M39.0511 11.4361C46.4222 -10.9314 41.6226 -48.8306 57.5857 -69.3477C57.5857 -69.3477 36.656 -61.6306 34.9803 -29.9088C32.6223 14.6547 27.2982 29.1149 3.99191 36.6141C20.7347 38.6268 34.8225 24.2778 39.0511 11.4361Z" fill="#EDB940"/>
<path d="M39.4642 11.5286C46.8354 -10.839 45.9209 -50.185 61.8886 -70.7021C61.8886 -70.7021 57.6599 -69.4732 55.8032 -68.5039C54.9027 -67.4929 54.0533 -66.4633 53.2549 -65.4152C35.6626 -42.25 42.8899 -9.98099 36.1361 10.5129C32.1442 22.6312 20.2381 36.7993 4.74388 36.5906C4.62784 36.6277 4.10332 36.5767 3.98727 36.6138C20.7301 38.6265 35.231 24.3703 39.4642 11.5286Z" fill="#E38B33"/>
</g>
</svg>
